<svg xmlns="http://www.w3.org/2000/svg" width="34.003" height="34.02" viewBox="0 0 34.003 34.02">
  <g id="Chicago_Transit_Authority_Logo" transform="translate(-9.562 -9.563)">
    <path id="path3" d="M43.565,26.6A17,17,0,1,1,26.585,9.563,16.972,16.972,0,0,1,43.565,26.6" transform="translate(0)" fill="#fff"/>
    <path id="path5" d="M43.565,26.6A17,17,0,1,1,26.585,9.563,16.972,16.972,0,0,1,43.565,26.6Z" transform="translate(0)" fill="none"/>
    <path id="path7" d="M57.022,41.789A15.051,15.051,0,1,1,41.972,26.71a15.05,15.05,0,0,1,15.05,15.079" transform="translate(-15.382 -15.194)" fill="#0078c1"/>
    <path id="path9" d="M77.231,151.2c-.156-.216-.468-.271-.885-.271-1.561,0-1.977,2.116-1.977,3.038,0,.977.208,1.844,1.249,1.844.936,0,1.353-.922,1.561-1.464h3.434c-.624,2.821-2.341,4.177-5.047,4.177-4.006,0-4.787-2.658-4.787-4.5,0-3.363,2.081-5.858,5.671-5.858,2.6,0,4.579,1.247,4.527,4.014H77.491a1.1,1.1,0,0,0-.26-.977" transform="translate(-55.874 -126.524)" fill="#fff"/>
    <path id="path11" d="M167.464,137.818l-.52,2.712s-.937.054-1.509.054a4.754,4.754,0,0,1-2.341-.217,2.113,2.113,0,0,1-.884-1.844,5.212,5.212,0,0,1,.208-1.3l.832-3.906h-1.561l.468-2.278h1.561l.572-2.875h3.538l-.624,2.875h1.873l-.468,2.278h-1.769l-.624,3.092c0,.162-.1.6-.1.922s.364.488.572.488h.781" transform="translate(-138.512 -108.495)" fill="#fff"/>
    <path id="path13" d="M221.194,155.182c-.416.054-1.145,0-1.145-.7s.677-.977,1.3-1.085a4.891,4.891,0,0,0,1.717-.543,2.489,2.489,0,0,1-1.873,2.332m1.457-7.974c-2.341,0-4.006.868-4.839,3.092h3.434a1.694,1.694,0,0,1,1.509-.759c.52-.055,1.3,0,1.2.651-.156.7-1.821.976-2.809,1.03-2.757.217-4.631,1.139-4.631,3.743,0,1.9,1.457,2.6,3.122,2.6a3.8,3.8,0,0,0,2.914-1.194h.052l-.208,1.031h3.434a66.851,66.851,0,0,0,1.456-7.539C227.281,147.479,224.367,147.208,222.65,147.208Z" transform="translate(-188.989 -125.649)" fill="#fff"/>
    <path id="path15" d="M311.15,224.9a.962.962,0,0,1-.989-.976.989.989,0,0,1,1.977,0,.962.962,0,0,1-.988.976" transform="translate(-273.62 -193.565)" fill="#fff"/>
    <path id="path17" d="M312.771,224.367a.818.818,0,0,0-.781.814.783.783,0,0,0,.781.814.753.753,0,0,0,.78-.814.783.783,0,0,0-.78-.814" transform="translate(-275.241 -194.819)" fill="#0078c1"/>
    <path id="path19" d="M316.323,227.888l-.312-.488H315.8v.488h-.156v-1.139h.416c.26,0,.416.108.416.325,0,.163-.156.271-.312.325l.312.488h-.156" transform="translate(-278.481 -196.924)" fill="#fff"/>
    <path id="path21" d="M317.486,227.915a.2.2,0,0,0-.208-.217h-.26v.38h.208c.155,0,.26,0,.26-.163" transform="translate(-279.696 -197.701)" fill="#0078c1"/>
  </g>
</svg>
