<svg xmlns="http://www.w3.org/2000/svg" width="35.897" height="35" viewBox="0 0 35.897 35">
  <path id="Icon_awesome-github" data-name="Icon awesome-github" d="M12.007,28.744c0,.145-.166.261-.376.261-.239.022-.405-.094-.405-.261,0-.145.166-.261.376-.261C11.818,28.462,12.007,28.578,12.007,28.744Zm-2.251-.326c-.051.145.094.311.311.355a.339.339,0,0,0,.449-.145c.043-.145-.094-.311-.311-.376A.371.371,0,0,0,9.756,28.419Zm3.2-.123c-.21.051-.355.188-.333.355.022.145.21.239.427.188s.355-.188.333-.333S13.165,28.274,12.955,28.3ZM17.717.562A17.354,17.354,0,0,0,0,18.221,18.145,18.145,0,0,0,12.267,35.533c.926.166,1.252-.405,1.252-.876,0-.449-.022-2.924-.022-4.444,0,0-5.066,1.086-6.13-2.157,0,0-.825-2.106-2.012-2.649,0,0-1.657-1.136.116-1.115a3.82,3.82,0,0,1,2.794,1.867,3.826,3.826,0,0,0,5.276,1.513A4.022,4.022,0,0,1,14.7,25.234c-4.046-.449-8.127-1.035-8.127-8a5.485,5.485,0,0,1,1.708-4.263A6.838,6.838,0,0,1,8.468,8.06c1.513-.47,4.994,1.954,4.994,1.954a17.1,17.1,0,0,1,9.09,0s3.481-2.432,4.994-1.954a6.835,6.835,0,0,1,.188,4.914A5.626,5.626,0,0,1,29.6,17.237c0,6.984-4.263,7.541-8.308,8a4.28,4.28,0,0,1,1.23,3.358c0,2.439-.022,5.457-.022,6.05,0,.47.333,1.042,1.252.876A17.977,17.977,0,0,0,35.9,18.221C35.9,8.183,27.755.562,17.717.562ZM7.035,25.524c-.094.072-.072.239.051.376.116.116.282.166.376.072.094-.072.072-.239-.051-.376C7.3,25.48,7.129,25.43,7.035,25.524Zm-.782-.586c-.051.094.022.21.166.282a.215.215,0,0,0,.311-.051c.051-.094-.022-.21-.166-.282C6.419,24.844,6.3,24.865,6.253,24.938ZM8.6,27.514c-.116.094-.072.311.094.449.166.166.376.188.47.072.094-.094.051-.311-.094-.449C8.909,27.42,8.692,27.4,8.6,27.514ZM7.773,26.45c-.116.072-.116.261,0,.427s.311.239.405.166a.33.33,0,0,0,0-.449C8.077,26.429,7.889,26.356,7.773,26.45Z" transform="translate(0 -0.563)" fill="#fff"/>
</svg>
