<svg xmlns="http://www.w3.org/2000/svg" width="34" height="34" viewBox="0 0 34 34">
  <path id="Icon_simple-linkedin" data-name="Icon simple-linkedin" d="M28.967,28.974H23.932V21.084c0-1.881-.038-4.3-2.624-4.3-2.625,0-3.026,2.047-3.026,4.164v8.028H13.247V12.75h4.836v2.211h.065a5.306,5.306,0,0,1,4.774-2.621c5.1,0,6.045,3.358,6.045,7.728v8.905ZM7.561,10.53A2.924,2.924,0,1,1,10.485,7.6,2.921,2.921,0,0,1,7.561,10.53Zm2.524,18.444H5.036V12.75h5.049ZM31.485,0H2.509A2.479,2.479,0,0,0,0,2.449v29.1A2.478,2.478,0,0,0,2.509,34H31.481A2.487,2.487,0,0,0,34,31.551V2.449A2.488,2.488,0,0,0,31.481,0Z" fill="#009dc3"/>
</svg>
