<svg xmlns="http://www.w3.org/2000/svg" width="35.5" height="35.5" viewBox="0 0 35.5 35.5">
  <path id="Icon_awesome-twitter-square" data-name="Icon awesome-twitter-square" d="M31.7,2.25H3.8A3.8,3.8,0,0,0,0,6.054V33.946a3.8,3.8,0,0,0,3.8,3.8H31.7a3.8,3.8,0,0,0,3.8-3.8V6.054A3.8,3.8,0,0,0,31.7,2.25ZM27.822,14.833c.016.222.016.452.016.674A14.686,14.686,0,0,1,13.051,30.293a14.718,14.718,0,0,1-7.98-2.33,10.949,10.949,0,0,0,1.252.063,10.42,10.42,0,0,0,6.45-2.219A5.2,5.2,0,0,1,7.916,22.2a5.6,5.6,0,0,0,2.346-.1A5.2,5.2,0,0,1,6.1,17v-.063a5.194,5.194,0,0,0,2.346.658,5.186,5.186,0,0,1-2.314-4.327,5.132,5.132,0,0,1,.705-2.623,14.757,14.757,0,0,0,10.713,5.436,5.208,5.208,0,0,1,8.867-4.747,10.184,10.184,0,0,0,3.3-1.252,5.184,5.184,0,0,1-2.282,2.861,10.342,10.342,0,0,0,3-.808A10.939,10.939,0,0,1,27.822,14.833Z" transform="translate(0 -2.25)" fill="#189dc3"/>
</svg>
