<svg id="Icon_feather-settings" data-name="Icon feather-settings" xmlns="http://www.w3.org/2000/svg" width="32" height="32" viewBox="0 0 32 32">
  <path id="Path_28" data-name="Path 28" d="M22.5,18A4.5,4.5,0,1,1,18,13.5,4.5,4.5,0,0,1,22.5,18Z" transform="translate(-2 -2)" fill="none" stroke="#fff" stroke-linecap="round" stroke-linejoin="round" stroke-width="3"/>
  <path id="Path_29" data-name="Path 29" d="M25.755,19.955a2.175,2.175,0,0,0,.435,2.4l.079.079a2.638,2.638,0,1,1-3.73,3.73l-.079-.079a2.193,2.193,0,0,0-3.717,1.555v.224a2.636,2.636,0,1,1-5.273,0v-.119a2.175,2.175,0,0,0-1.424-1.99,2.175,2.175,0,0,0-2.4.435l-.079.079a2.638,2.638,0,1,1-3.73-3.73l.079-.079A2.193,2.193,0,0,0,4.36,18.742H4.136a2.636,2.636,0,0,1,0-5.273h.119a2.175,2.175,0,0,0,1.99-1.424,2.175,2.175,0,0,0-.435-2.4l-.079-.079a2.638,2.638,0,1,1,3.73-3.73l.079.079a2.175,2.175,0,0,0,2.4.435h.105a2.175,2.175,0,0,0,1.318-1.99V4.136a2.636,2.636,0,0,1,5.273,0v.119A2.193,2.193,0,0,0,22.354,5.81l.079-.079a2.638,2.638,0,1,1,3.73,3.73l-.079.079a2.175,2.175,0,0,0-.435,2.4v.105a2.175,2.175,0,0,0,1.99,1.318h.224a2.636,2.636,0,1,1,0,5.273h-.119a2.175,2.175,0,0,0-1.99,1.318Z" transform="translate(0 0)" fill="none" stroke="#fff" stroke-linecap="round" stroke-linejoin="round" stroke-width="3"/>
</svg>
