<svg xmlns="http://www.w3.org/2000/svg" width="29" height="29" viewBox="0 0 29 29">
  <path id="Icon_ionic-md-locate" data-name="Icon ionic-md-locate" d="M16.75,11.571a5.179,5.179,0,1,0,5.179,5.179A5.194,5.194,0,0,0,16.75,11.571Zm12.36,3.8A12.476,12.476,0,0,0,18.131,4.391V2.25H15.369V4.39A12.476,12.476,0,0,0,4.39,15.369H2.25v2.762H4.39A12.476,12.476,0,0,0,15.369,29.11v2.14h2.762V29.11A12.476,12.476,0,0,0,29.11,18.131h2.14V15.369ZM16.75,26.417a9.667,9.667,0,1,1,9.667-9.667A9.695,9.695,0,0,1,16.75,26.417Z" transform="translate(-2.25 -2.25)" fill="#fff"/>
</svg>
