<svg xmlns="http://www.w3.org/2000/svg" width="19.562" height="19.562" viewBox="0 0 19.562 19.562">
  <g id="Icon_ionic-ios-close-circle-outline" data-name="Icon ionic-ios-close-circle-outline" transform="translate(-3.375 -3.375)">
    <path id="Path_7" data-name="Path 7" d="M19.673,18.608,17.195,16.13l2.478-2.478a.751.751,0,1,0-1.063-1.063l-2.478,2.478-2.478-2.478a.751.751,0,0,0-1.063,1.063l2.478,2.478-2.478,2.478a.727.727,0,0,0,0,1.063.746.746,0,0,0,1.063,0l2.478-2.478,2.478,2.478a.755.755,0,0,0,1.063,0A.747.747,0,0,0,19.673,18.608Z" transform="translate(-2.976 -2.974)" fill="#fff"/>
    <path id="Path_8" data-name="Path 8" d="M13.156,4.692A8.461,8.461,0,1,1,7.17,7.17a8.408,8.408,0,0,1,5.986-2.478m0-1.317a9.781,9.781,0,1,0,9.781,9.781,9.78,9.78,0,0,0-9.781-9.781Z" fill="#fff"/>
  </g>
</svg>
